#!OML:ASF F:\VICON\USERDATA\INSTALL\rory3\rory3.ASF
:FULLY-SPECIFIED
:DEGREES
924
root 1.85406 16.187 -20.2207 18.1756 -13.8456 -361.739
lowerback -3.13045 2.46238 -0.0186856
upperback -7.44395 3.23679 -0.972769
thorax -5.91158 1.5768 -1.06525
lowerneck -8.32314 2.89463 2.0308
upperneck 38.6092 3.32218 1.25631
head 14.7708 1.84576 0.631457
rclavicle -1.32378e-014 1.55052e-014
rhumerus 87.3763 -18.988 -71.8398
rradius 14.3615
rwrist 29.5165
rhand 19.0231 5.42367
rfingers 7.12502
rthumb 43.6239 -18.598
lclavicle -1.32378e-014 1.55052e-014
lhumerus 62.5448 16.6387 44.0389
lradius 21.8672
lwrist -16.0553
lhand 14.0105 23.9194
lfingers 7.12502
lthumb 38.9194 49.4625
rfemur -17.2996 9.12856 32.4945
rtibia 34.5361
rfoot -36.9472 -30.7499
rtoes 17.3946
lfemur 109.162 162.561 138.213
ltibia 52.9783
lfoot 14.1037 8.32992
ltoes -6.52756
925
root 1.87331 16.2258 -20.3246 17.9099 -13.0548 -361.355
lowerback -2.98318 2.3118 -0.0995579
upperback -7.58141 3.04251 -0.796784
thorax -6.15957 1.48867 -0.845503
lowerneck -7.52818 2.87165 1.73968
upperneck 38.2928 3.38996 1.22405
head 14.4272 1.83738 0.657587
rclavicle 4.17448e-014 8.94531e-015
rhumerus 87.7923 -17.8768 -70.6901
rradius 14.7115
rwrist 27.5167
rhand 19.0108 5.39164
rfingers 7.12502
rthumb 43.6125 -18.6343
lclavicle 4.17448e-014 8.94531e-015
lhumerus 63.402 15.5262 43.0476
lradius 22.069
lwrist -12.4476
lhand 13.3134 24.145
lfingers 7.12502
lthumb 38.2618 49.8725
rfemur -17.6828 9.39413 32.1108
rtibia 34.6776
rfoot -36.2818 -31.2893
rtoes 16.9143
lfemur 108.875 162.274 137.369
ltibia 52.4989
lfoot 18.254 7.53183
ltoes -3.14571
926
root 1.88674 16.2582 -20.4262 17.37 -11.5173 -360.66
lowerback -2.50092 1.96931 -0.278964
upperback -7.66077 2.58272 -0.763611
thorax -6.53556 1.26953 -0.721985
lowerneck -6.91216 2.69159 1.36339
upperneck 38.1693 3.18544 1.32403
head 14.2155 1.71565 0.723018
rclavicle -3.09064e-014 4.17448e-015
rhumerus 88.1149 -17.1294 -69.3119
rradius 15.041
rwrist 25.1794
rhand 19.0899 5.55755
rfingers 7.12502
rthumb 43.6863 -18.4413
lclavicle -3.09064e-014 4.17448e-015
lhumerus 64.6791 14.4374 42.4989
lradius 22.2287
lwrist -9.37727
lhand 12.904 24.44
lfingers 7.12502
lthumb 37.8752 50.2731
rfemur -17.8265 9.25104 31.6973
rtibia 34.8796
rfoot -36.0942 -31.9855
rtoes 17.0135
lfemur 109.054 162.409 136.363
ltibia 52.0182
lfoot 20.9521 6.2404
ltoes -5.4434
927
root 1.9188 16.3065 -20.4752 15.7918 -9.55385 -359.606
lowerback -1.92656 1.46302 -0.500591
upperback -6.96244 1.90486 -0.74928
thorax -6.12955 0.947624 -0.563945
lowerneck -6.98798 2.49917 1.01017
upperneck 38.103 3.00631 1.25467
head 14.1934 1.58407 0.734503
rclavicle -2.87927e-015 -1.44119e-015
rhumerus 89.379 -16.4953 -68.6749
rradius 15.1962
rwrist 23.3621
rhand 18.9327 5.95868
rfingers 7.12502
rthumb 43.5396 -18.0938
lclavicle -2.87927e-015 -1.44119e-015
lhumerus 66.6149 14.2655 43.1317
lradius 22.2154
lwrist -7.61701
lhand 13.1475 24.1041
lfingers 7.12502
lthumb 38.1051 49.8747
rfemur -16.5844 8.40843 31.0551
rtibia 34.869
rfoot -36.2795 -32.6017
rtoes 17.544
lfemur 110.947 162.811 135.737
ltibia 51.554
lfoot 23.0574 5.81297
ltoes -4.8021
928
root 1.92793 16.3249 -20.5968 16.2793 -8.50688 -359.418
lowerback -2.04413 1.36541 -0.498756
upperback -7.13105 1.77828 -0.687486
thorax -6.24478 0.886989 -0.49664
lowerneck -7.68325 2.26026 0.927071
upperneck 38.4621 2.65198 1.30651
head 14.5209 1.42745 0.742202
rclavicle -3.29354e-015 1.82385e-014
rhumerus 90.7346 -15.9739 -69.1711
rradius 15.173
rwrist 22.3157
rhand 18.5832 6.27915
rfingers 7.12502
rthumb 43.213 -17.8911
lclavicle -3.29354e-015 1.82385e-014
lhumerus 68.5582 13.7729 43.332
lradius 22.2744
lwrist -5.57444
lhand 13.388 23.8799
lfingers 7.12502
lthumb 38.3321 49.5879
rfemur -17.6734 8.58228 30.923
rtibia 34.9259
rfoot -36.2743 -32.9027
rtoes 18.6141
lfemur 109.903 163.079 135.033
ltibia 51.2781
lfoot 25.468 6.16939
ltoes -3.76959
929
root 1.94303 16.3493 -20.6992 16.3242 -7.4859 -359.263
lowerback -2.4581 1.27507 -0.314307
upperback -7.27787 1.66828 -0.576673
thorax -6.16268 0.826214 -0.472643
lowerneck -6.39797 2.03137 0.602698
upperneck 38.1288 2.3725 1.37642
head 14.0644 1.27831 0.764195
rclavicle -1.54427e-014 -1.85864e-014
rhumerus 91.4392 -15.276 -68.9122
rradius 15.1992
rwrist 20.5152
rhand 18.3715 6.57487
rfingers 7.12502
rthumb 43.0151 -17.6657
lclavicle -1.54427e-014 -1.85864e-014
lhumerus 70.0137 13.0213 43.4873
lradius 22.2919
lwrist -3.44982
lhand 13.232 23.7595
lfingers 7.12502
lthumb 38.1849 49.5082
rfemur -18.0286 8.58357 30.8588
rtibia 34.8176
rfoot -37.3332 -32.3841
rtoes 21.1918
lfemur 109.48 163.323 134.704
ltibia 51.1042
lfoot 26.9696 7.49795
ltoes -4.01431
